<svg width="20" height="20" viewBox="0 0 20 20" fill="none" xmlns="http://www.w3.org/2000/svg">
<path d="M18.8 10.2083C18.8 9.55831 18.7417 8.93331 18.6333 8.33331H10V11.8833H14.9333C14.7167 13.025 14.0667 13.9916 13.0917 14.6416V16.95H16.0667C17.8 15.35 18.8 13 18.8 10.2083Z" fill="#4285F4"/>
<path d="M10.0002 19.1667C12.4752 19.1667 14.5502 18.35 16.0669 16.9583L13.0919 14.65C12.2586 15.2083 11.1919 15.5417 10.0002 15.5417C7.61689 15.5417 5.59189 13.9333 4.86689 11.7667H1.81689V14.1333C3.32523 17.1083 6.41689 19.1667 10.0002 19.1667Z" fill="#34A853"/>
<path d="M4.86683 11.7666C4.6835 11.2083 4.57516 10.6083 4.57516 9.99997C4.57516 9.39164 4.6835 8.79164 4.86683 8.2333V5.86664H1.81683C1.19183 7.12497 0.833496 8.51664 0.833496 9.99997C0.833496 11.4833 1.19183 12.875 1.81683 14.1333L4.86683 11.7666Z" fill="#FBBC05"/>
<path d="M10.0002 4.48331C11.3502 4.48331 12.5502 4.94998 13.5086 5.84998L16.1336 3.22498C14.5419 1.74165 12.4752 0.833313 10.0002 0.833313C6.41689 0.833313 3.32523 2.89165 1.81689 5.86665L4.86689 8.23331C5.59189 6.06665 7.61689 4.45831 10.0002 4.45831V4.48331Z" fill="#EA4335"/>
</svg>
